<svg xmlns="http://www.w3.org/2000/svg" xml:space="preserve" width="1500" height="1500" data-id="lg_jeRzB46ENwKo551Ajv" data-version="1" viewBox="0 0 1500 1500"><path fill="#26767f" stroke="transparent" d="M0 0h1500v1500H0z"/><g data-padding="20"><g transform="translate(-569.073 -582.927)scale(1.71898)"><rect width="479.459" height="109.359" x="252.551" y="665.166" fill="none" rx="0" ry="0" transform="matrix(.99 0 0 .99 316.11 54.47)"/><path fill="#fff" d="M587.597 797.137v-68.12h23.93q7.89 0 14 2.27t10.29 6.64 6.36 10.63q2.17 6.26 2.17 14.23 0 7.22-1.91 13.45t-6.09 10.94q-4.18 4.7-10.94 7.33t-16.46 2.63h-14.4Zm8.65-7.21h12.75q9.75 0 15.53-3.56t8.31-9.75q2.53-6.18 2.53-13.97 0-5.97-1.51-10.84-1.5-4.88-4.58-8.36-3.08-3.49-7.88-5.35-4.8-1.87-11.35-1.87h-13.8v45.57Zm81.58 8.26q-5.87 0-10.34-2.03-4.46-2.03-7.47-5.52t-4.56-8q-1.56-4.51-1.56-9.48 0-7.12 2.89-12.64 2.89-5.51 8.22-8.71 5.32-3.2 12.68-3.2 5.69 0 10.08 1.86t7.45 5.21q3.06 3.34 4.64 7.81 1.57 4.46 1.57 9.67 0 7.02-2.86 12.71-2.87 5.68-8.15 9t-12.59 3.32m0-6.88q5.21 0 8.65-2.58t5.16-6.73q1.72-4.16 1.72-8.84 0-5.35-1.91-9.32-1.91-3.96-5.4-6.16-3.49-2.19-8.26-2.19-5.16 0-8.7 2.34-3.53 2.34-5.32 6.35t-1.79 8.98q0 4.68 1.74 8.84 1.74 4.15 5.28 6.73 3.53 2.58 8.83 2.58m49.98 6.88q-2.96 0-5.95-.48-2.98-.48-5.61-1.26-2.63-.79-4.59-1.8l.62-7.4q2.2 1.24 4.71 2.17 2.51.94 5.21 1.44t5.42.5q2.63 0 4.85-.6t3.53-2.2 1.31-4.65q0-2.01-1.14-3.3-1.15-1.29-3.85-2.34t-7.28-2.34q-3.78-1.05-6.74-2.58t-4.65-4.11q-1.7-2.58-1.7-6.73 0-6.45 4.23-10.15 4.22-3.71 11.39-3.71 2.96 0 5.73.51 2.77.5 5.11 1.31t4.06 1.72l-.67 7.4q-2.29-1.43-4.72-2.36-2.44-.93-4.69-1.34-2.24-.4-3.96-.4-1.96 0-3.89.54-1.94.55-3.23 2.01t-1.29 4.18q0 1.96.91 3.3.91 1.33 3.15 2.38 2.25 1.06 6.21 2.2 4.73 1.39 8.1 2.89 3.37 1.51 5.18 3.94 1.82 2.44 1.82 6.74 0 4.15-1.82 7.43-1.81 3.27-5.68 5.18t-10.08 1.91m51.48 0q-8.5 0-13.99-3.25-5.5-3.25-8.17-8.88-2.68-5.64-2.68-12.9 0-7.17 2.63-12.71t7.55-8.67 11.75-3.13q6.02 0 10.34 2.35 4.32 2.34 6.66 6.85t2.34 11.15q0 1.77-.07 3.18t-.31 2.84l-6.92-3.49q.09-.76.11-1.45.03-.69.03-1.36 0-6.74-3.34-10.25-3.35-3.51-8.75-3.51-4.34 0-7.47 2.22t-4.85 6.14-1.72 8.93v1.1q0 5.54 1.91 9.55 1.91 4.02 5.8 6.19 3.9 2.17 9.92 2.17 2.24 0 4.75-.36 2.51-.35 4.97-1.12 2.46-.76 4.7-2l.34 7.11q-1.82 1.01-4.21 1.75t-5.25 1.14q-2.87.41-6.07.41m16.05-23.17h-37.59v-5.63l32.77-.29 4.82 1.81Zm19.4 22.12h-8.27q.67-5.54 1.36-10.94.7-5.4 1.46-11.75l2.82-22.45q.76-6.26 1.43-11.66.67-5.39 1.43-11.32h8.7q2.96 7.26 5.73 14.02t5.49 13.45l10.8 26.46h.67l10.7-26.41q2.72-6.79 5.44-13.47 2.73-6.69 5.64-14.05h8.69q.72 5.83 1.36 11.23.65 5.4 1.46 11.7l2.77 22.69 1.43 11.54q.67 5.32 1.34 10.96h-8.26q-1.1-9.08-2.1-17.25-1.01-8.16-1.87-15.23l-2.48-20.35h-.62l-8.65 21.92q-3.15 7.98-6.3 15.98-3.16 8-5.88 14.93h-5.87q-1.72-4.35-3.82-9.56-2.11-5.2-4.33-10.65-2.22-5.44-4.32-10.55l-8.93-22.07h-.62l-2.49 20.3q-.86 7.12-1.84 15.28Zm96.1.95q-4.25 0-7.45-1.64-3.2-1.65-4.99-4.71t-1.79-7.36q0-3.86 1.38-6.52 1.39-2.65 3.63-4.32 2.25-1.67 4.97-2.6t5.45-1.41l14.85-2.58q.19-4.83-1.26-7.29-1.46-2.46-4.09-3.32-2.62-.85-5.82-.85-1.63 0-3.49.23-1.86.24-3.94.74-2.08.51-4.37 1.27-2.3.76-4.83 1.86l-.43-7.21q1.72-.72 3.9-1.38 2.17-.67 4.63-1.22t5.04-.84 5.2-.29q5.31 0 9.15 1.68 3.85 1.67 5.9 5.25 2.06 3.58 2.06 9.36v32.2h-7.17l-.43-6.74h-.76q-1.48 1.91-3.73 3.68-2.24 1.77-5.18 2.89t-6.43 1.12m2.3-6.54q2.53 0 5.06-1.05t4.75-3.13 3.75-5.23l.05-10.22q-.76.43-2.03.86t-3.77.98q-2.51.55-6.95 1.36-2.73.48-4.83 1.55t-3.32 2.91-1.22 4.47q0 4.11 2.46 5.8 2.46 1.7 6.05 1.7m54.55 6.64q-4.73 0-8.03-1.65-3.29-1.65-4.99-5.01-1.7-3.37-1.7-8.63v-48.53l7.79-1.72v48.39q0 5.11 2.17 7.69 2.18 2.58 6.67 2.58 1.76 0 3.87-.6 2.1-.59 3.72-1.88l.67 6.92q-.96.72-2.58 1.27t-3.58.86-4.01.31m-12.61-42.18h-11.23v-6.26h33.53v6.26h-19.06Zm55.21 42.18q-8.5 0-13.99-3.25t-8.17-8.88q-2.67-5.64-2.67-12.9 0-7.17 2.62-12.71 2.63-5.54 7.55-8.67t11.75-3.13q6.02 0 10.34 2.35 4.32 2.34 6.67 6.85 2.34 4.51 2.34 11.15 0 1.77-.08 3.18-.07 1.41-.31 2.84l-6.92-3.49q.09-.76.12-1.45.02-.69.02-1.36 0-6.74-3.34-10.25-3.35-3.51-8.74-3.51-4.35 0-7.48 2.22t-4.85 6.14-1.72 8.93v1.1q0 5.54 1.91 9.55 1.91 4.02 5.81 6.19 3.89 2.17 9.91 2.17 2.24 0 4.75-.36 2.51-.35 4.97-1.12 2.46-.76 4.7-2l.34 7.11q-1.82 1.01-4.2 1.75-2.39.74-5.26 1.14-2.87.41-6.07.41m16.05-23.17h-37.59v-5.63l32.77-.29 4.82 1.81Z"/><rect width="566.288" height="15.82" x="209.136" y="711.935" fill="none" rx="0" ry="0" transform="matrix(.99 0 0 .99 280 117.37)"/><path fill="#fff" d="M502.557 834.357v-9.42h2.51q1.5 0 2.17.55.67.56.67 1.69 0 .52-.15.91-.14.39-.32.65-.21.3-.46.53.33.12.62.31.29.2.51.47.23.28.36.66t.13.89q0 .57-.15 1.07-.16.51-.51.88-.36.37-.96.59-.59.22-1.48.22Zm1.16-8.38v3.05h2.31q.19-.15.34-.4.14-.21.25-.52t.11-.75q0-.82-.42-1.1t-1.18-.28Zm0 4.02v3.33h1.88q.91 0 1.37-.47.45-.47.45-1.26 0-.34-.09-.63-.09-.3-.31-.51t-.59-.34q-.37-.12-.93-.12Zm11.22 4.37v-5.83q0-.32-.07-.99l1.03-.14.11 1.01h.01q.25-.32.48-.55.24-.24.49-.41.26-.17.49-.17.32-.02.89.06l-.25 1.07q-.46-.08-.64-.07-.23 0-.49.22-.27.22-.46.47-.25.3-.48.69v4.64Zm14.22-1.1.21.93q-.32.1-.66.16-.33.07-.74.13-.41.05-.85.05-.69 0-1.29-.19-.59-.19-1.03-.62-.45-.43-.7-1.11-.26-.69-.26-1.68 0-.9.25-1.58.25-.69.69-1.15.43-.46 1.02-.7.59-.23 1.28-.23.67 0 1.17.26t.82.71q.33.45.49 1.05t.16 1.26l-.21.61h-4.47q0 .43.12.86.11.43.38.77.26.35.7.56.44.22 1.08.22.42 0 .77-.05.34-.05.6-.11.25-.06.47-.15m-4.07-2.98h3.48q0-.1-.04-.43t-.2-.69q-.15-.36-.47-.64-.31-.29-.84-.29-.58 0-.95.24-.38.25-.6.58t-.3.68q-.08.34-.08.55m14.65 2.46v-1.58q-.28.02-.53.03t-.49.03q-.24.03-.44.05-.99.13-1.41.44-.41.31-.41.89 0 .48.3.73.29.24.78.24.66 0 1.18-.23t1.02-.6m.12 1.73-.14-.76q-.65.37-1.21.6-.56.22-1.21.22-.92 0-1.47-.44-.54-.45-.54-1.49 0-.54.27-.94.28-.4.73-.67t1.01-.42q.57-.15 1.16-.2.25-.02.65-.04t.63-.04q0-.48-.03-.86t-.17-.65-.41-.41-.76-.14q-.4 0-.78.05-.37.05-.66.1-.35.07-.64.16l-.22-.96q.35-.08.75-.15.34-.07.8-.12.46-.04.98-.04.71 0 1.14.2.44.21.68.56t.33.8.09.95v3.32q0 .19.01.4 0 .22.03.43l.04.42Zm7.57-.11v-10.35l1.11-.12v6.23l3.08-2.71h1.52l-3.01 2.64 3.12 4.31h-1.39l-2.55-3.6-.77.67v2.93Zm19.6-.01v-9.42h1.16v8.32h4.29v1.1Zm15.19-1.61v-1.58q-.28.02-.53.03t-.49.03q-.24.03-.43.05-1 .13-1.41.44-.42.31-.42.89 0 .48.3.73.3.24.78.24.66 0 1.18-.23t1.02-.6m.12 1.73-.14-.76q-.64.37-1.2.6-.56.22-1.21.22-.93 0-1.48-.44-.54-.45-.54-1.49 0-.54.27-.94.28-.4.73-.67t1.02-.42q.56-.15 1.16-.2.25-.02.65-.04t.62-.04q0-.48-.03-.86t-.16-.65q-.14-.27-.41-.41t-.77-.14q-.4 0-.77.05-.38.05-.67.1-.34.07-.63.16l-.22-.96q.34-.08.74-.15.35-.07.8-.12.46-.04.99-.04.7 0 1.14.2.43.21.67.56t.33.8.09.95v3.32q0 .19.01.4.01.22.03.43.02.2.05.42Zm7.59-.12v-5.56q.01-.29-.07-1.26l1.02-.14.16.88q.41-.27.82-.48t.83-.37q.43-.15.83-.15.57 0 .95.13t.62.43q.23.31.33.8.11.5.11 1.25v4.47h-1.11v-4.35q0-.41-.01-.74-.02-.32-.12-.55t-.32-.35q-.21-.13-.6-.13-.36 0-.76.16t-.79.37q-.38.2-.78.48v5.11Zm17.62-6.78v7.45q0 .51-.11.99-.11.49-.42.87t-.87.61q-.56.22-1.47.22-.58-.01-1.01-.07-.43-.05-.81-.15-.39-.11-.71-.25l.29-.96q.54.23 1.1.36.56.12 1 .12.49 0 .84-.1.36-.09.61-.32.24-.23.36-.6.11-.38.11-.93v-1.01q-.29.2-.6.35-.31.16-.66.27t-.69.11q-1.28 0-2.03-.9-.74-.91-.74-2.7 0-1.04.32-1.74.33-.69.82-1.12.5-.43 1.1-.62.59-.18 1.13-.18.7 0 1.29.11.59.12 1.15.19m-2.91 6q.3 0 .62-.11t.62-.27q.29-.15.58-.36v-4.4q-.16-.05-.38-.1-.2-.03-.45-.06-.25-.04-.52-.04-.58 0-1 .21-.41.21-.68.57t-.39.84q-.13.48-.13 1.02 0 .49.1.97.11.48.33.87t.54.62q.32.24.76.24m13.81.9-.08-.88h-.03q-.12.1-.36.26-.23.16-.54.31-.3.15-.67.26-.36.11-.74.11-.51 0-.87-.13t-.58-.43q-.22-.31-.32-.8-.09-.5-.09-1.25v-4.52h1.1v4.36q0 .41.02.74.01.33.09.57.09.23.27.37.19.13.53.13.36 0 .75-.15.39-.16.71-.35.37-.22.73-.5v-5.17h1.1v6.06q.02.49.07.89Zm11.53-1.73v-1.58q-.28.02-.52.03-.25.01-.49.03-.25.03-.44.05-1 .13-1.41.44t-.41.89q0 .48.29.73.3.24.78.24.67 0 1.19-.23.51-.23 1.01-.6m.13 1.73-.14-.76q-.65.37-1.21.6-.56.22-1.21.22-.93 0-1.47-.44-.55-.45-.55-1.49 0-.54.28-.94.27-.4.72-.67t1.02-.42 1.16-.2q.25-.02.65-.04t.62-.04q0-.48-.03-.86-.02-.38-.16-.65t-.41-.41-.77-.14q-.4 0-.77.05t-.66.1q-.35.07-.64.16l-.22-.96q.34-.08.74-.15.35-.07.81-.12.45-.04.98-.04.7 0 1.14.2.43.21.67.56.25.35.34.8t.09.95v3.72q.01.22.03.43.02.2.05.42Zm13.01-6.9v7.45q0 .51-.11.99-.11.49-.42.87t-.87.61q-.56.22-1.47.22-.58-.01-1.01-.07-.43-.05-.81-.15-.39-.11-.71-.25l.29-.96q.54.23 1.1.36.56.12 1 .12.48 0 .84-.1.36-.09.61-.32.24-.23.35-.6.12-.38.12-.93v-1.01q-.29.2-.6.35-.31.16-.66.27t-.69.11q-1.28 0-2.03-.9-.74-.91-.74-2.7 0-1.04.32-1.74.33-.69.82-1.12.5-.43 1.09-.62.6-.18 1.14-.18.7 0 1.29.11.59.12 1.15.19m-2.91 6q.3 0 .62-.11t.61-.27q.3-.15.59-.36v-4.4q-.16-.05-.38-.1-.2-.03-.45-.06-.25-.04-.52-.04-.58 0-1 .21-.41.21-.68.57t-.4.84q-.12.48-.12 1.02 0 .49.1.97.11.48.33.87t.54.62q.32.24.76.24m14.48-.31.21.93q-.32.1-.66.16-.34.07-.74.13-.41.05-.85.05-.7 0-1.29-.19t-1.04-.62q-.44-.43-.69-1.11-.26-.69-.26-1.68 0-.9.25-1.58.25-.69.68-1.15.44-.46 1.03-.7.58-.23 1.27-.23.68 0 1.18.26t.82.71q.33.45.49 1.05.15.6.15 1.26l-.2.61h-4.47q0 .43.11.86t.38.77q.27.35.71.56.43.22 1.08.22.42 0 .76-.05.35-.05.6-.11.26-.06.48-.15m-4.08-2.98h3.49q0-.1-.04-.43-.05-.33-.2-.69t-.47-.64q-.32-.29-.84-.29-.58 0-.95.24-.38.25-.6.58t-.3.68q-.09.34-.09.55m18.81 4.07v-9.42h2.52q1.49 0 2.16.55.67.56.67 1.69 0 .52-.14.91-.15.39-.33.65-.21.3-.45.53.33.12.62.31.29.2.51.47.22.28.35.66t.13.89q0 .57-.15 1.07-.15.51-.51.88t-.95.59q-.6.22-1.48.22Zm1.16-8.38v3.05h2.31q.2-.15.35-.4.14-.21.25-.52t.11-.75q0-.82-.42-1.1-.43-.28-1.19-.28Zm0 4.02v3.33h1.88q.92 0 1.37-.47.46-.47.46-1.26 0-.34-.09-.63-.09-.3-.31-.51t-.6-.34q-.37-.12-.92-.12Zm15.08 2.75v-1.58q-.27.02-.52.03t-.49.03q-.25.03-.44.05-.99.13-1.41.44-.41.31-.41.89 0 .48.29.73.3.24.78.24.67 0 1.19-.23.51-.23 1.01-.6m.13 1.73-.14-.76q-.65.37-1.21.6-.56.22-1.21.22-.93 0-1.47-.44-.55-.45-.55-1.49 0-.54.28-.94.27-.4.72-.67t1.02-.42 1.16-.2q.25-.02.65-.04t.62-.04q0-.48-.03-.86-.02-.38-.16-.65t-.41-.41-.77-.14q-.4 0-.77.05t-.66.1q-.35.07-.64.16l-.22-.96q.35-.08.75-.15.34-.07.8-.12.45-.04.98-.04.7 0 1.14.2.43.21.68.56.24.35.33.8t.09.95v3.72q.01.22.03.43.02.2.05.42Zm7.58-.11v-5.83q0-.32-.07-.99l1.03-.14.11 1.01h.01q.25-.32.49-.55.23-.24.49-.41.25-.17.49-.17.31-.02.88.06l-.25 1.07q-.45-.08-.63-.07-.24 0-.5.22t-.46.47q-.25.3-.48.69v4.64Zm9.3 0v-5.83q0-.32-.06-.99l1.02-.14.11 1.01h.01q.25-.32.49-.55.23-.24.49-.41.25-.17.49-.17.32-.02.88.06l-.25 1.07q-.45-.08-.63-.07-.24 0-.5.22t-.46.47q-.24.3-.48.69v4.64Zm9.29-.01v-6.96l1.11-.12v7.08Zm-.18-8.94q0-.31.22-.53.21-.21.53-.21.33 0 .56.21.23.22.23.53 0 .32-.23.54-.23.21-.56.21-.32 0-.53-.21-.22-.22-.22-.54m12.86 7.85.2.93q-.32.1-.65.16-.34.07-.75.13-.41.05-.85.05-.69 0-1.29-.19-.59-.19-1.03-.62t-.7-1.11q-.26-.69-.26-1.68 0-.9.25-1.58.25-.69.69-1.15.43-.46 1.02-.7.59-.23 1.28-.23.68 0 1.17.26.5.26.83.71.32.45.48 1.05t.16 1.26l-.21.61h-4.46q0 .43.11.86t.38.77q.27.35.7.56.44.22 1.09.22.41 0 .76-.05.34-.05.6-.11.25-.06.48-.15m-4.08-2.98h3.48q0-.1-.04-.43t-.19-.69q-.16-.36-.47-.64-.32-.29-.85-.29-.58 0-.95.24-.37.25-.59.58-.23.33-.31.68-.08.34-.08.55m10.79 4.08v-5.83q0-.32-.07-.99l1.03-.14.11 1.01h.01q.25-.32.48-.55.24-.24.49-.41.26-.17.49-.17.32-.02.89.06l-.25 1.07q-.46-.08-.64-.07-.23 0-.49.22-.27.22-.46.47-.25.3-.48.69v4.64Zm13.24-6.8-.19.98q-.58-.18-1.03-.25-.45-.06-.82-.06-.49 0-.81.24-.33.23-.33.61.02.33.29.56.28.24.65.42.36.19.81.41t.84.5q.4.28.65.66.25.39.26.93-.01.58-.26.96-.24.38-.62.61-.38.22-.82.31t-.83.09q-.5 0-1.03-.05-.53-.06-1.14-.24l.21-.99q.62.17 1.13.24.51.08.84.08.25 0 .49-.06.25-.05.44-.16.19-.1.31-.27.12-.16.12-.37-.02-.39-.26-.66-.25-.27-.65-.48-.39-.21-.84-.43-.45-.21-.84-.5-.4-.28-.66-.67-.26-.4-.26-.98 0-.41.21-.74.22-.32.55-.54.34-.21.75-.33.41-.11.8-.11.4 0 .89.06.5.06 1.15.23m14.26 6.79v-6.96l1.11-.12v7.08Zm-.18-8.94q0-.31.22-.53.21-.21.53-.21.33 0 .56.21.23.22.23.53 0 .32-.23.54-.23.21-.56.21-.32 0-.53-.21-.22-.22-.22-.54m7.94 8.94v-5.56q.01-.29-.07-1.26l1.02-.14.15.88q.42-.27.82-.48.41-.21.84-.37.43-.15.83-.15.57 0 .95.13t.61.43q.24.31.34.8.1.5.1 1.25v4.47h-1.1v-4.35q0-.41-.02-.74-.01-.32-.11-.55-.11-.23-.32-.35-.22-.13-.6-.13-.36 0-.76.16t-.79.37q-.39.2-.79.48v5.11Zm19.98 0 .5-9.42h1.48l2.13 5.61q.17.48.33.89.15.41.26.73.14.36.23.66h.03q.09-.3.21-.66l.25-.73q.14-.41.33-.89l2.17-5.61h1.48l.48 9.42h-1.17l-.24-5.18q-.03-.67-.04-1.14t-.01-.78v-.58h-.03q-.08.21-.21.57-.11.3-.28.78t-.42 1.15l-1.95 5.18h-1.18l-1.96-5.18q-.26-.66-.43-1.14-.16-.47-.27-.78-.13-.36-.2-.58h-.02q.01.22.02.58.02.58-.04 1.92l-.27 5.18Zm21.45-1.09.21.93q-.32.1-.66.16-.34.07-.75.13-.4.05-.85.05-.69 0-1.28-.19-.6-.19-1.04-.62t-.7-1.11q-.25-.69-.25-1.68 0-.9.25-1.58.25-.69.68-1.15.44-.46 1.02-.7.59-.23 1.28-.23.68 0 1.18.26.49.26.82.71.32.45.48 1.05t.16 1.26l-.2.61h-4.47q0 .43.11.86t.38.77q.27.35.71.56.43.22 1.08.22.42 0 .76-.05.35-.05.6-.11.26-.06.48-.15m-4.08-2.98h3.49q0-.1-.05-.43-.04-.33-.19-.69t-.47-.64q-.32-.29-.84-.29-.58 0-.96.24-.37.25-.59.58t-.3.68q-.09.34-.09.55m15.12 2.56v-4.39q-.5-.14-.77-.17-.28-.04-.57-.04-.58 0-.99.21-.42.21-.69.57-.27.37-.39.85-.13.47-.13 1.01 0 .49.11.97.1.48.32.87t.54.62q.32.24.76.24.31 0 .63-.11.33-.11.6-.26.28-.14.58-.37m.13 1.64-.11-.67q-.32.22-.62.37-.3.14-.65.25t-.68.11q-1.3 0-2.04-.91-.74-.92-.74-2.69 0-1.05.34-1.76.34-.7.85-1.12.51-.43 1.1-.61.58-.17 1.08-.17.25 0 .53.03.27.03.81.17v-3.47l1.11-.12v9.62q.01.22.03.43.02.2.05.42Zm7.62-.13v-6.96l1.11-.12v7.08Zm-.17-8.94q0-.31.21-.53.21-.21.53-.21.33 0 .56.21.23.22.23.53 0 .32-.23.54-.23.21-.56.21-.32 0-.53-.21-.21-.22-.21-.54m12.44 2.08-.22.92q-.24-.05-.65-.12-.42-.06-.85-.06-.62 0-1.01.25-.4.25-.62.64-.22.4-.3.87-.08.48-.08.94 0 .7.18 1.21.18.5.47.82.3.32.69.46.38.15.81.15.29 0 .56-.04.27-.03.5-.08t.43-.12l.23.93q-.29.08-.54.14-.25.05-.59.09t-.73.04q-.76 0-1.35-.19-.6-.19-1-.62-.41-.43-.62-1.12-.22-.69-.22-1.69 0-.96.27-1.66t.71-1.13q.44-.44 1.02-.65.57-.2 1.19-.2.34 0 .65.03t.54.08q.28.05.53.11m10.03 5.25v-1.58q-.28.02-.53.03t-.49.03q-.24.03-.43.05-1 .13-1.41.44-.42.31-.42.89 0 .48.3.73.3.24.78.24.66 0 1.18-.23t1.02-.6m.12 1.73-.14-.76q-.65.37-1.21.6-.56.22-1.21.22-.92 0-1.47-.44-.54-.45-.54-1.49 0-.54.27-.94.28-.4.73-.67t1.01-.42q.57-.15 1.17-.2.24-.02.64-.04.41-.02.63-.04 0-.48-.03-.86t-.17-.65q-.13-.27-.4-.41t-.77-.14q-.4 0-.78.05-.37.05-.66.1-.34.07-.63.16l-.23-.96q.35-.08.75-.15.35-.07.8-.12.46-.04.98-.04.71 0 1.14.2.44.21.68.56t.33.8.09.95v3.32q0 .19.01.4.01.22.03.43.02.2.05.42Zm8.08-9 1.1-.14v2.07h2.01v.9h-2.01v3.69q0 .46.02.76.02.31.09.49t.2.25q.12.08.31.08.53-.02 1.22-.39l.33.84q-.45.31-.85.41-.39.1-.78.1-.91 0-1.28-.51-.36-.52-.36-1.72v-4h-1.28v-.9h1.28Zm9.16 8.88v-6.96l1.1-.12v7.08Zm-.18-8.94q0-.31.21-.53.22-.21.54-.21.33 0 .56.21.22.22.22.53 0 .32-.22.54-.23.21-.56.21-.32 0-.54-.21-.21-.22-.21-.54m8.72 5.5q0 1.34.6 2t1.62.66q1.01 0 1.58-.65.56-.65.56-1.95 0-1.38-.6-2.06t-1.64-.68q-1.03 0-1.58.67-.54.67-.54 2.01m-1.18-.01q0-1.05.33-1.75t.85-1.12q.51-.42 1.09-.59.59-.17 1.12-.17.49 0 1.08.15.59.16 1.09.57.49.41.83 1.09.33.69.33 1.74 0 1.09-.34 1.81t-.85 1.14-1.11.59q-.59.17-1.1.17-.53 0-1.11-.16-.58-.17-1.07-.57-.49-.41-.81-1.12-.33-.7-.33-1.78m12.97 3.45v-5.56q.01-.29-.07-1.26l1.02-.14.15.88q.42-.27.83-.48.4-.21.83-.37.43-.15.83-.15.57 0 .95.13t.61.43q.24.31.34.8.11.5.11 1.25v4.47h-1.11v-4.35q0-.41-.01-.74-.02-.32-.12-.55-.11-.23-.32-.35-.21-.13-.6-.13-.36 0-.76.16t-.79.37q-.39.2-.79.48v5.11Zm19.99 0 .5-9.42h1.48l2.13 5.61q.18.48.33.89t.26.73q.14.36.24.66h.02q.09-.3.21-.66l.25-.73q.14-.41.33-.89l2.17-5.61h1.48l.48 9.42h-1.17l-.24-5.18q-.02-.67-.04-1.14-.01-.47-.01-.78v-.58h-.03q-.08.21-.21.57-.11.3-.28.78t-.42 1.15l-1.95 5.18h-1.17l-1.97-5.18q-.26-.66-.43-1.14-.16-.47-.27-.78-.13-.36-.2-.58h-.02q.01.22.02.58.02.58-.04 1.92l-.27 5.18Zm20.39-1.61v-1.58q-.28.02-.53.03t-.49.03q-.24.03-.43.05-1 .13-1.41.44-.42.31-.42.89 0 .48.3.73.3.24.78.24.66 0 1.18-.23t1.02-.6m.12 1.73-.14-.76q-.65.37-1.21.6-.56.22-1.21.22-.92 0-1.47-.44-.54-.45-.54-1.49 0-.54.27-.94.28-.4.73-.67t1.01-.42q.57-.15 1.17-.2.24-.02.64-.04.41-.02.63-.04 0-.48-.03-.86t-.17-.65q-.13-.27-.4-.41t-.77-.14q-.4 0-.78.05-.37.05-.66.1-.34.07-.63.16l-.23-.96q.35-.08.75-.15.35-.07.8-.12.46-.04.98-.04.71 0 1.14.2.44.21.68.56t.33.8.09.95v3.32q0 .19.01.4.01.22.03.43.02.2.05.42Zm7.59-.12v-5.56q.01-.29-.07-1.26l1.02-.14.15.88q.42-.27.83-.48.4-.21.83-.37.43-.15.83-.15.57 0 .95.13t.61.43q.24.31.34.8.11.5.11 1.25v4.47h-1.11v-4.35q0-.41-.01-.74-.02-.32-.12-.55t-.32-.35q-.21-.13-.6-.13-.36 0-.76.16t-.79.37q-.39.2-.79.48v5.11Zm16.06-1.61v-1.58q-.28.02-.53.03t-.49.03q-.24.03-.43.05-1 .13-1.41.44-.42.31-.42.89 0 .48.3.73.3.24.78.24.66 0 1.18-.23t1.02-.6m.12 1.73-.14-.76q-.65.37-1.21.6-.56.22-1.2.22-.93 0-1.48-.44-.54-.45-.54-1.49 0-.54.27-.94.28-.4.73-.67t1.02-.42q.56-.15 1.16-.2.24-.02.65-.04.4-.02.62-.04 0-.48-.03-.86t-.17-.65q-.13-.27-.4-.41t-.77-.14q-.4 0-.77.05-.38.05-.67.1-.34.07-.63.16l-.22-.96q.34-.08.74-.15.35-.07.8-.12.46-.04.98-.04.71 0 1.14.2.44.21.68.56t.33.8.09.95v3.32q0 .19.01.4.01.22.03.43.02.2.05.42Zm13.02-6.9v7.45q0 .51-.11.99-.11.49-.42.87t-.87.61q-.56.22-1.47.22-.58-.01-1.01-.07-.43-.05-.82-.15-.39-.11-.7-.25l.29-.96q.54.23 1.1.36.56.12 1 .12.48 0 .84-.1.36-.09.6-.32t.36-.6q.12-.38.12-.93v-1.01q-.29.2-.6.35-.31.16-.67.27-.35.11-.68.11-1.29 0-2.03-.9-.75-.91-.75-2.7 0-1.04.33-1.74.32-.69.82-1.12t1.09-.62q.6-.18 1.13-.18.71 0 1.3.11.58.12 1.15.19m-2.92 6q.31 0 .63-.11.31-.11.61-.27.3-.15.59-.36v-4.4q-.17-.05-.39-.1-.19-.03-.44-.06-.25-.04-.53-.04-.58 0-.99.21-.42.21-.68.57-.27.36-.4.84-.12.48-.12 1.02 0 .49.1.97t.33.87q.22.39.53.62.32.24.76.24m14.49-.31.21.93q-.32.1-.66.16-.34.07-.75.13-.41.05-.85.05-.69 0-1.28-.19-.6-.19-1.04-.62t-.7-1.11q-.25-.69-.25-1.68 0-.9.25-1.58.24-.69.68-1.15t1.02-.7q.59-.23 1.28-.23.68 0 1.18.26.49.26.82.71.32.45.48 1.05t.16 1.26l-.21.61h-4.46q0 .43.11.86t.38.77q.27.35.7.56.44.22 1.09.22.41 0 .76-.05t.6-.11q.26-.06.48-.15m-4.08-2.98h3.48q0-.1-.04-.43t-.19-.69-.47-.64q-.32-.29-.84-.29-.58 0-.96.24-.37.25-.59.58t-.31.68q-.08.34-.08.55m10.78 4.07v-5.69q0-.47-.08-1.13l1.04-.14.15.87q.37-.28.73-.48.36-.21.78-.36.41-.15.84-.15.69 0 1.09.24t.6.82q.56-.4 1.18-.73.61-.33 1.28-.33.51 0 .87.13t.58.43q.22.31.31.8.1.5.1 1.25v4.47h-1.1v-4.35q0-.41-.02-.74-.01-.32-.09-.55-.09-.23-.27-.35-.19-.13-.54-.13-.31 0-.6.09-.28.09-.59.26-.3.16-.93.68v5.09h-1.11v-4.35q0-.41-.01-.74-.02-.32-.1-.55t-.27-.35q-.19-.13-.53-.13-.36 0-.75.15-.39.16-.73.36-.35.21-.72.49v5.12Zm21.02-1.09.2.93q-.31.1-.65.16-.34.07-.75.13-.41.05-.85.05-.69 0-1.28-.19-.6-.19-1.04-.62t-.7-1.11q-.25-.69-.25-1.68 0-.9.25-1.58.24-.69.68-1.15.43-.46 1.02-.7.59-.23 1.28-.23.68 0 1.18.26.49.26.82.71.32.45.48 1.05t.16 1.26l-.21.61h-4.46q0 .43.11.86t.38.77q.27.35.7.56.44.22 1.09.22.41 0 .76-.05.34-.05.6-.11t.48-.15m-4.08-2.98h3.48q0-.1-.04-.43t-.19-.69-.47-.64q-.32-.29-.84-.29-.59 0-.96.24-.37.25-.59.58t-.31.68q-.08.34-.08.55m10.78 4.07v-5.56q.02-.29-.07-1.26l1.03-.14.15.88q.41-.27.82-.48t.84-.37q.43-.15.83-.15.56 0 .94.13t.62.43q.23.31.34.8.1.5.1 1.25v4.47h-1.1v-4.35q0-.41-.02-.74-.01-.32-.12-.55-.1-.23-.31-.35-.22-.13-.6-.13-.36 0-.77.16-.4.16-.78.37-.39.2-.79.48v5.11Zm12.7-8.88 1.11-.14v2.07h2v.9h-2v3.69q0 .46.02.76.02.31.09.49t.19.25q.13.08.32.08.53-.02 1.22-.39l.33.84q-.46.31-.85.41t-.78.1q-.91 0-1.28-.51-.37-.52-.37-1.72v-4h-1.27v-.9h1.27Zm-456.43-91.873v-3.237c0-3.237-2.655-5.81-5.81-5.81h-47.641c-3.237 0-5.81 2.656-5.81 5.81v3.154a5.797 5.797 0 0 0 5.312 5.81c-.498.83-1.08 1.743-1.66 2.822-.498.996-3.154 6.059-3.154 8.217v37.682c0 6.225 5.063 11.205 11.205 11.205h35.939c6.142 0 11.205-5.063 11.205-11.205V750.37c0-2.158-2.656-7.221-3.154-8.217a26 26 0 0 0-1.66-2.822c2.905-.25 5.229-2.74 5.229-5.727m-11.537 37.93H550.1v4.732c0 1.162-.913 2.075-2.075 2.075s-2.075-.913-2.075-2.075v-4.731h-4.731c-1.162 0-2.075-.913-2.075-2.075s.913-2.075 2.075-2.075h4.73v-4.731c0-1.162.914-2.075 2.076-2.075s2.075.913 2.075 2.075v4.73h4.73c1.163 0 2.076.914 2.076 2.076.083 1.162-.913 2.075-2.075 2.075m6.64 16.517a6.695 6.695 0 0 1-6.723 6.723h-35.94a6.695 6.695 0 0 1-6.722-6.723v-2.656h49.385Zm0-37.6v3.487h-49.468v-3.486c.249-1.826 3.984-9.047 5.56-10.624h38.347c1.577 1.494 5.312 8.798 5.56 10.624m.416-16.85c0 .748-.581 1.329-1.328 1.329h-47.642a1.31 1.31 0 0 1-1.328-1.328v-3.237c0-.747.58-1.328 1.328-1.328h47.642c.747 0 1.328.58 1.328 1.328Z"/></g><path fill="transparent" stroke="transparent" stroke-width="1.783" d="M250 638.592h1000v222.816H250z"/></g></svg>